<?xml version="1.0" encoding="utf-8"?>
<!-- Generator: Adobe Illustrator 17.0.0, SVG Export Plug-In . SVG Version: 6.00 Build 0)  -->
<!DOCTYPE svg PUBLIC "-//W3C//DTD SVG 1.1//EN" "http://www.w3.org/Graphics/SVG/1.1/DTD/svg11.dtd">
<svg version="1.1" id="Layer_1" xmlns="http://www.w3.org/2000/svg" xmlns:xlink="http://www.w3.org/1999/xlink" x="0px" y="0px"
	 width="868.5px" height="222px" viewBox="0 0 868.5 222" style="enable-background:new 0 0 868.5 222;" xml:space="preserve">
<style type="text/css">
	.st0{fill:#414042;}
	.st1{stroke:#000000;stroke-width:9.8724;stroke-linecap:round;stroke-linejoin:round;stroke-miterlimit:10;}
	.st2{stroke:#000000;stroke-width:6.1558;stroke-linecap:round;stroke-linejoin:round;stroke-miterlimit:10;}
	.st3{stroke:#000000;stroke-width:10;stroke-linecap:round;stroke-linejoin:round;stroke-miterlimit:10;}
	.st4{fill:#FFFFFF;}
	.st5{display:none;fill:#FFFFFF;}
	.st6{fill:none;stroke:#000000;stroke-width:5;stroke-miterlimit:10;}
	.st7{fill:none;stroke:#414042;stroke-width:6;stroke-miterlimit:10;}
	.st8{fill:none;stroke:#414042;stroke-width:4;stroke-miterlimit:10;}
	.st9{fill:#FFFFFF;stroke:#FFFFFF;stroke-width:6;stroke-linecap:round;stroke-linejoin:round;stroke-miterlimit:10;}
	.st10{fill:#FFFFFF;stroke:#FFFFFF;stroke-width:21;stroke-linecap:round;stroke-linejoin:round;stroke-miterlimit:10;}
	.st11{fill:#00AEEF;}
</style>
<rect x="1135.8" y="-1315" class="st0" width="1073" height="317"/>
<rect x="1135.8" y="-966.4" class="st0" width="1073" height="317"/>
<g>
	<defs>
		<path id="SVGID_1_" d="M1306.2-1410.5c0-2.9-1.7-5.5-5-7.8c-3.3-2.3-9.4-4.4-18.1-6.2c-13.8-2.7-24.2-6.9-31.2-12.6
			c-7-5.7-10.5-13.5-10.5-23.3c0-10.4,4.4-19.3,13.2-26.6c8.8-7.3,20.6-10.9,35.6-10.9c15.8,0,28.4,3.5,37.7,10.6
			c9.4,7.1,13.8,16.2,13.4,27.4l-0.2,0.7h-36c0-4.7-1.2-8.2-3.6-10.6c-2.4-2.4-6.2-3.6-11.5-3.6c-3.9,0-7.1,1.1-9.8,3.2
			c-2.6,2.1-3.9,4.8-3.9,8.1c0,3.1,1.5,5.8,4.5,8c3,2.2,9.2,4.2,18.4,5.9c14.5,2.8,25.2,7.1,32.2,12.8c7,5.7,10.5,13.7,10.5,24.1
			c0,10.7-4.7,19.5-14.2,26.4c-9.5,6.9-22,10.4-37.5,10.4c-16.2,0-28.9-4.1-38.3-12.3c-9.4-8.2-13.9-17.3-13.4-27.4l0.2-0.7h33.5
			c0.1,5.6,1.8,9.7,5.1,12.2c3.3,2.5,7.9,3.7,13.9,3.7c5,0,8.7-1,11.3-2.9C1304.9-1404.2,1306.2-1406.9,1306.2-1410.5z
			 M1403.1-1525.3v29.5h20.1v25.7h-20.1v54.4c0,4.2,0.9,7.3,2.6,9.2c1.7,1.9,4,2.8,7,2.8c2.3,0,4.2-0.1,5.5-0.2
			c1.4-0.1,3.1-0.4,5.2-0.9l2.6,27.4c-4.1,0.9-7.8,1.6-11.1,2c-3.3,0.4-7.2,0.6-11.6,0.6c-12.2,0-21.4-3.3-27.7-9.8
			c-6.3-6.5-9.4-16.8-9.4-30.9v-54.6h-16.7v-25.7h16.7v-29.5H1403.1z M1432.3-1437.6c0-17.8,5-32.4,15.1-43.6
			c10.1-11.2,24.2-16.8,42.2-16.8c18.1,0,32.2,5.6,42.3,16.8c10.1,11.2,15.1,25.7,15.1,43.6v2.3c0,17.9-5,32.4-15.1,43.6
			c-10.1,11.2-24.1,16.8-42.1,16.8c-18.2,0-32.3-5.6-42.4-16.8c-10.1-11.2-15.1-25.7-15.1-43.6V-1437.6z M1469.4-1435.3
			c0,9.9,1.6,17.7,4.7,23.4c3.1,5.7,8.4,8.5,15.8,8.5c7.2,0,12.4-2.8,15.6-8.6c3.1-5.7,4.7-13.5,4.7-23.3v-2.3
			c0-9.6-1.6-17.4-4.7-23.2c-3.1-5.8-8.4-8.7-15.8-8.7c-7.3,0-12.5,2.9-15.6,8.8c-3.1,5.8-4.7,13.6-4.7,23.1V-1435.3z
			 M1614.1-1403.4c5,0,8.7-1.4,11.1-4.1c2.4-2.7,3.6-6.7,3.6-11.9h33.9l0.2,0.7c0.3,12.9-4.2,23.5-13.4,31.6
			c-9.2,8.1-21,12.2-35.4,12.2c-18,0-31.8-5.6-41.6-16.8c-9.8-11.2-14.6-25.7-14.6-43.5v-2.5c0-17.8,4.9-32.2,14.6-43.5
			c9.7-11.2,23.5-16.8,41.3-16.8c15.1,0,27.1,4.2,36.1,12.6c9,8.4,13.3,19.8,13,34.3l-0.2,0.7h-33.9c0-5.6-1.2-10.2-3.7-13.8
			c-2.5-3.5-6.2-5.3-11.3-5.3c-7,0-11.9,2.9-14.7,8.7c-2.8,5.8-4.2,13.5-4.2,23.1v2.5c0,9.9,1.4,17.7,4.2,23.3
			C1601.8-1406.2,1606.9-1403.4,1614.1-1403.4z M1721.4-1424.3h-6.2v47.1h-37.1v-171h37.1v95.9h4.9l25.3-43.5h42.4l-36.8,53.6
			l42.6,65h-42.2L1721.4-1424.3z"/>
	</defs>
	<clipPath id="SVGID_2_">
		<use xlink:href="#SVGID_1_"  style="overflow:visible;"/>
	</clipPath>
	<g style="clip-path:url(#SVGID_2_);">
		
			<image style="overflow:visible;" width="3021" height="1509" xlink:href="F385D6CC325DFD3E.png"  transform="matrix(0.2307 0 0 0.2307 1188.6481 -1611.4575)">
		</image>
	</g>
</g>
<rect x="1336.8" y="-1664.8" class="st1" width="116" height="80.7"/>
<text transform="matrix(1 0 0 1 1223.817 -1764.6102)"><tspan x="0" y="0" style="font-family:'Roboto-Black'; font-size:149.0161;">stock</tspan><tspan x="371.5" y="0" style="font-family:'RobotoSlab-Bold'; font-size:149.0161;">IT</tspan></text>
<path class="st2" d="M1266.6-1606.3c0-2-1.1-3.8-3.4-5.3c-2.3-1.6-6.4-3-12.4-4.2c-9.4-1.8-16.5-4.7-21.3-8.6
	c-4.8-3.9-7.2-9.2-7.2-15.9c0-7.1,3-13.2,9-18.1c6-5,14.1-7.4,24.3-7.4c10.8,0,19.3,2.4,25.7,7.2c6.4,4.8,9.4,11,9.1,18.6l-0.1,0.4
	h-24.5c0-3.2-0.8-5.6-2.4-7.2c-1.6-1.6-4.2-2.5-7.8-2.5c-2.6,0-4.9,0.7-6.6,2.2c-1.8,1.4-2.7,3.3-2.7,5.5c0,2.1,1,4,3.1,5.4
	c2.1,1.5,6.2,2.8,12.5,4c9.9,1.9,17.2,4.8,21.9,8.7c4.8,3.9,7.1,9.3,7.1,16.4c0,7.3-3.2,13.3-9.7,18c-6.4,4.7-15,7.1-25.6,7.1
	c-11,0-19.7-2.8-26.1-8.4c-6.4-5.6-9.4-11.8-9.1-18.7l0.1-0.4h22.8c0.1,3.8,1.3,6.6,3.5,8.3c2.2,1.7,5.4,2.5,9.4,2.5
	c3.4,0,5.9-0.7,7.7-2C1265.8-1602,1266.6-1603.9,1266.6-1606.3z"/>
<path class="st3" d="M1337.2-1683.9v19.6h13.3v17h-13.3v36.1c0,2.8,0.6,4.8,1.7,6.1c1.1,1.2,2.7,1.9,4.6,1.9c1.6,0,2.8,0,3.7-0.1
	c0.9-0.1,2-0.3,3.5-0.6l1.7,18.2c-2.7,0.6-5.2,1.1-7.3,1.3c-2.2,0.3-4.8,0.4-7.7,0.4c-8.1,0-14.2-2.2-18.4-6.5
	c-4.2-4.3-6.3-11.2-6.3-20.5v-36.2h-11.1v-17h11.1v-19.6H1337.2z"/>
<path class="st3" d="M1507.2-1603c3.3,0,5.7-0.9,7.3-2.7c1.6-1.8,2.4-4.4,2.4-7.9h22.5l0.1,0.4c0.2,8.6-2.8,15.6-8.9,21
	c-6.1,5.4-14,8.1-23.5,8.1c-11.9,0-21.1-3.7-27.6-11.1c-6.5-7.4-9.7-17.1-9.7-28.9v-1.7c0-11.8,3.2-21.4,9.7-28.9
	c6.5-7.4,15.6-11.2,27.4-11.2c10,0,18,2.8,23.9,8.4c6,5.6,8.9,13.2,8.7,22.8l-0.1,0.4H1517c0-3.7-0.8-6.8-2.5-9.1
	c-1.6-2.4-4.1-3.5-7.5-3.5c-4.7,0-7.9,1.9-9.8,5.7c-1.9,3.8-2.8,8.9-2.8,15.4v1.7c0,6.6,0.9,11.8,2.8,15.5
	C1499.1-1604.9,1502.4-1603,1507.2-1603z"/>
<path class="st3" d="M1586.5-1615.9h-4.1v31.3h-24.6v-113.5h24.6v63.7h3.3l16.8-28.9h28.2l-24.4,35.6l28.3,43.1h-28L1586.5-1615.9z"
	/>
<g>
	<path d="M1647.3-1686.8v-14.7h50.5v14.7l-13.1,2.5v87.5l13.1,2.5v14.7h-50.5v-14.7l13.1-2.5v-87.5L1647.3-1686.8z"/>
	<path d="M1814.4-1701.5v32.5h-18.8l-1-13.6h-22.4v85.9l13.1,2.5v14.7h-50.6v-14.7l13.1-2.5v-85.9h-22.4l-1,13.6h-18.7v-32.5H1814.4
		z"/>
</g>
<g>
	<path d="M1807.2-1527.3v-20.8h71.4v20.8l-18.5,3.6v123.7l18.5,3.5v20.7h-71.4v-20.7l18.5-3.5v-123.7L1807.2-1527.3z"/>
	<path d="M2043.4-1548.2v45.9h-26.5l-1.4-19.3h-31.7v121.4l18.5,3.5v20.7h-71.5v-20.7l18.5-3.5v-121.4h-31.6l-1.4,19.3h-26.4v-45.9
		H2043.4z"/>
</g>
<path class="st4" d="M1306.2-770c0-2.9-1.7-5.5-5-7.8c-3.3-2.3-9.4-4.4-18.1-6.2c-13.8-2.7-24.2-6.9-31.2-12.6
	c-7-5.7-10.5-13.5-10.5-23.3c0-10.4,4.4-19.3,13.2-26.6c8.8-7.3,20.6-10.9,35.6-10.9c15.8,0,28.4,3.5,37.7,10.6
	c9.4,7.1,13.8,16.2,13.4,27.4l-0.2,0.7h-36c0-4.7-1.2-8.2-3.6-10.6c-2.4-2.4-6.2-3.6-11.5-3.6c-3.9,0-7.1,1.1-9.8,3.2
	c-2.6,2.1-3.9,4.8-3.9,8.1c0,3.1,1.5,5.8,4.5,8c3,2.2,9.2,4.2,18.4,5.9c14.5,2.8,25.2,7.1,32.2,12.8c7,5.7,10.5,13.7,10.5,24.1
	c0,10.7-4.7,19.5-14.2,26.4c-9.5,6.9-22,10.4-37.5,10.4c-16.2,0-28.9-4.1-38.3-12.3c-9.4-8.2-13.9-17.3-13.4-27.4l0.2-0.7h33.5
	c0.1,5.6,1.8,9.7,5.1,12.2c3.3,2.5,7.9,3.7,13.9,3.7c5,0,8.7-1,11.3-2.9C1304.9-763.6,1306.2-766.4,1306.2-770z M1403.1-884.7v29.5
	h20.1v25.7h-20.1v54.4c0,4.2,0.9,7.3,2.6,9.2c1.7,1.9,4,2.8,7,2.8c2.3,0,4.2-0.1,5.5-0.2c1.4-0.1,3.1-0.4,5.2-0.9l2.6,27.4
	c-4.1,0.9-7.8,1.6-11.1,2c-3.3,0.4-7.2,0.6-11.6,0.6c-12.2,0-21.4-3.3-27.7-9.8c-6.3-6.5-9.4-16.8-9.4-30.9v-54.6h-16.7v-25.7h16.7
	v-29.5H1403.1z M1432.3-797c0-17.8,5-32.4,15.1-43.6c10.1-11.2,24.2-16.8,42.2-16.8c18.1,0,32.2,5.6,42.3,16.8
	c10.1,11.2,15.1,25.7,15.1,43.6v2.3c0,17.9-5,32.4-15.1,43.6c-10.1,11.2-24.1,16.8-42.1,16.8c-18.2,0-32.3-5.6-42.4-16.8
	c-10.1-11.2-15.1-25.7-15.1-43.6V-797z M1469.4-794.7c0,9.9,1.6,17.7,4.7,23.4c3.1,5.7,8.4,8.5,15.8,8.5c7.2,0,12.4-2.8,15.6-8.6
	c3.1-5.7,4.7-13.5,4.7-23.3v-2.3c0-9.6-1.6-17.4-4.7-23.2c-3.1-5.8-8.4-8.7-15.8-8.7c-7.3,0-12.5,2.9-15.6,8.8
	c-3.1,5.8-4.7,13.6-4.7,23.1V-794.7z M1614.1-762.8c5,0,8.7-1.4,11.1-4.1c2.4-2.7,3.6-6.7,3.6-11.9h33.9l0.2,0.7
	c0.3,12.9-4.2,23.5-13.4,31.6c-9.2,8.1-21,12.2-35.4,12.2c-18,0-31.8-5.6-41.6-16.8c-9.8-11.2-14.6-25.7-14.6-43.5v-2.5
	c0-17.8,4.9-32.2,14.6-43.5c9.7-11.2,23.5-16.8,41.3-16.8c15.1,0,27.1,4.2,36.1,12.6c9,8.4,13.3,19.8,13,34.3l-0.2,0.7h-33.9
	c0-5.6-1.2-10.2-3.7-13.8c-2.5-3.5-6.2-5.3-11.3-5.3c-7,0-11.9,2.9-14.7,8.7c-2.8,5.8-4.2,13.5-4.2,23.1v2.5
	c0,9.9,1.4,17.7,4.2,23.3C1601.8-765.6,1606.9-762.8,1614.1-762.8z M1721.4-783.8h-6.2v47.1h-37.1v-171h37.1v95.9h4.9l25.3-43.5
	h42.4l-36.8,53.6l42.6,65h-42.2L1721.4-783.8z"/>
<g>
	<path class="st4" d="M1807.2-886.8v-20.8h71.4v20.8l-18.5,3.6v123.7l18.5,3.5v20.7h-71.4V-756l18.5-3.5v-123.7L1807.2-886.8z"/>
	<path class="st4" d="M2043.4-907.6v45.9h-26.5l-1.4-19.3h-31.7v121.4l18.5,3.5v20.7h-71.5V-756l18.5-3.5V-881h-31.6l-1.4,19.3
		h-26.4v-45.9H2043.4z"/>
</g>
<rect x="1133" y="-618.4" class="st0" width="1073" height="317"/>
<path class="st5" d="M1306.2-422c0-2.9-1.7-5.5-5-7.8c-3.3-2.3-9.4-4.4-18.1-6.2c-13.8-2.7-24.2-6.9-31.2-12.6
	c-7-5.7-10.5-13.5-10.5-23.3c0-10.4,4.4-19.3,13.2-26.6c8.8-7.3,20.6-10.9,35.6-10.9c15.8,0,28.4,3.5,37.7,10.6
	c9.4,7.1,13.8,16.2,13.4,27.4l-0.2,0.7h-36c0-4.7-1.2-8.2-3.6-10.6c-2.4-2.4-6.2-3.6-11.5-3.6c-3.9,0-7.1,1.1-9.8,3.2
	c-2.6,2.1-3.9,4.8-3.9,8.1c0,3.1,1.5,5.8,4.5,8c3,2.2,9.2,4.2,18.4,5.9c14.5,2.8,25.2,7.1,32.2,12.8c7,5.7,10.5,13.7,10.5,24.1
	c0,10.7-4.7,19.5-14.2,26.4c-9.5,6.9-22,10.4-37.5,10.4c-16.2,0-28.9-4.1-38.3-12.3c-9.4-8.2-13.9-17.3-13.4-27.4l0.2-0.7h33.5
	c0.1,5.6,1.8,9.7,5.1,12.2c3.3,2.5,7.9,3.7,13.9,3.7c5,0,8.7-1,11.3-2.9C1304.9-415.6,1306.2-418.4,1306.2-422z M1403.1-536.7v29.5
	h20.1v25.7h-20.1v54.4c0,4.2,0.9,7.3,2.6,9.2c1.7,1.9,4,2.8,7,2.8c2.3,0,4.2-0.1,5.5-0.2c1.4-0.1,3.1-0.4,5.2-0.9l2.6,27.4
	c-4.1,0.9-7.8,1.6-11.1,2c-3.3,0.4-7.2,0.6-11.6,0.6c-12.2,0-21.4-3.3-27.7-9.8c-6.3-6.5-9.4-16.8-9.4-30.9v-54.6h-16.7v-25.7h16.7
	v-29.5H1403.1z M1432.3-449c0-17.8,5-32.4,15.1-43.6c10.1-11.2,24.2-16.8,42.2-16.8c18.1,0,32.2,5.6,42.3,16.8
	c10.1,11.2,15.1,25.7,15.1,43.6v2.3c0,17.9-5,32.4-15.1,43.6c-10.1,11.2-24.1,16.8-42.1,16.8c-18.2,0-32.3-5.6-42.4-16.8
	c-10.1-11.2-15.1-25.7-15.1-43.6V-449z M1469.4-446.7c0,9.9,1.6,17.7,4.7,23.4c3.1,5.7,8.4,8.5,15.8,8.5c7.2,0,12.4-2.8,15.6-8.6
	c3.1-5.7,4.7-13.5,4.7-23.3v-2.3c0-9.6-1.6-17.4-4.7-23.2c-3.1-5.8-8.4-8.7-15.8-8.7c-7.3,0-12.5,2.9-15.6,8.8
	c-3.1,5.8-4.7,13.6-4.7,23.1V-446.7z M1614.1-414.8c5,0,8.7-1.4,11.1-4.1c2.4-2.7,3.6-6.7,3.6-11.9h33.9l0.2,0.7
	c0.3,12.9-4.2,23.5-13.4,31.6c-9.2,8.1-21,12.2-35.4,12.2c-18,0-31.8-5.6-41.6-16.8c-9.8-11.2-14.6-25.7-14.6-43.5v-2.5
	c0-17.8,4.9-32.2,14.6-43.5c9.7-11.2,23.5-16.8,41.3-16.8c15.1,0,27.1,4.2,36.1,12.6c9,8.4,13.3,19.8,13,34.3l-0.2,0.7h-33.9
	c0-5.6-1.2-10.2-3.7-13.8c-2.5-3.5-6.2-5.3-11.3-5.3c-7,0-11.9,2.9-14.7,8.7c-2.8,5.8-4.2,13.5-4.2,23.1v2.5
	c0,9.9,1.4,17.7,4.2,23.3C1601.8-417.7,1606.9-414.8,1614.1-414.8z M1721.4-435.8h-6.2v47.1h-37.1v-171h37.1v95.9h4.9l25.3-43.5
	h42.4l-36.8,53.6l42.6,65h-42.2L1721.4-435.8z"/>
<g>
	<path class="st4" d="M1825.9-538.8v-20.8h71.4v20.8l-18.5,3.6v123.7l18.5,3.5v20.7h-71.4v-20.7l18.5-3.5v-123.7L1825.9-538.8z"/>
	<path class="st4" d="M2062.1-559.7v45.9h-26.5l-1.4-19.3h-31.7v121.4l18.5,3.5v20.7h-71.5v-20.7l18.5-3.5V-533h-31.6l-1.4,19.3
		h-26.4v-45.9H2062.1z"/>
</g>
<path class="st4" d="M1783.2-1237.5v-20.6h70.6v20.6l-18.3,3.5v122.4l18.3,3.5v20.5h-70.6v-20.5l18.3-3.5v-122.4L1783.2-1237.5z"/>
<path class="st4" d="M2016.9-1258.1v45.4h-26.2l-1.4-19.1h-31.4v120.1l18.3,3.5v20.5h-70.7v-20.5l18.3-3.5v-120.1h-31.3l-1.4,19.1
	h-26.1v-45.4H2016.9z"/>
<circle class="st4" cx="1401.8" cy="-1624" r="40.9"/>
<circle cx="1401.8" cy="-1624" r="28.2"/>
<circle cx="1401.8" cy="-1624" r="21.3"/>
<circle class="st4" cx="1401.8" cy="-1624" r="14.6"/>
<path class="st4" d="M1337.2-1683.9v19.6h13.3v17h-13.3v36.1c0,2.8,0.6,4.8,1.7,6.1c1.1,1.2,2.7,1.9,4.6,1.9c1.6,0,2.8,0,3.7-0.1
	c0.9-0.1,2-0.3,3.5-0.6l1.7,18.2c-2.7,0.6-5.2,1.1-7.3,1.3c-2.2,0.3-4.8,0.4-7.7,0.4c-8.1,0-14.2-2.2-18.4-6.5
	c-4.2-4.3-6.3-11.2-6.3-20.5v-36.2h-11.1v-17h11.1v-19.6H1337.2z"/>
<line class="st6" x1="1306.3" y1="-1667" x2="1352.4" y2="-1667"/>
<g>
	<path class="st4" d="M1288.7-1085.8c-15.5,0-28.1-4.1-37.4-12.3c-9.6-8.5-14.2-18.6-13.7-30.1c0-0.7,0.1-1.3,0.4-1.9l0.2-0.6
		c1-2.9,3.6-4.8,6.6-4.8h18.9c3.7,0,6.8,2.9,7,6.7c0.3,6.2,2.8,8.6,4.7,9.8c3.7,2.5,8.1,3.7,13.3,3.7c5.5,0,9.7-1,12.4-3
		c2.1-1.5,3-3.2,3-5.5c0-2.3-0.7-3.9-2.5-5.4c-1.4-1.2-5.2-3.5-15.8-5.8c-14.2-3.1-24.9-7.3-32.4-12.9c-8.4-6.2-12.8-15.1-12.8-25.7
		c0-11,4.6-20.4,13.8-27.9c8.7-7.3,20.1-10.9,33.8-10.9c14.3,0,26,3.9,34.8,11.5c9.1,7.9,13.5,17.8,13.1,29.2c0,0.7-0.1,1.3-0.4,2
		l-0.2,0.6c-1,2.9-3.6,4.8-6.6,4.8H1310c-3.9,0-7-3.1-7-7c0-1.8-0.4-4.5-3.8-7.7c-2.7-2.5-6.3-3.7-11-3.7c-5.1,0-8.9,1-11,2.8
		c-1.9,1.8-2.8,3.6-2.8,5.9c0,2.7,1,3.9,2,4.7c1,0.8,4.4,2.9,15.4,5.2c14.9,3.2,25.8,7.5,33.4,13.3c8.4,6.3,12.8,15.3,12.8,25.9
		c0,11.9-4.9,21.6-14.4,29C1314.6-1089.3,1302.8-1085.8,1288.7-1085.8z"/>
</g>
<g>
	<path class="st4" d="M1388.2-1085.8c-9.9,0-18.1-3.2-24.2-9.4c-6.1-6.2-9.1-15.5-9.1-27.7v-59h-10.3c-3.9,0-7-3.1-7-7v-14.7
		c0-3.9,3.1-7,7-7h10.3v-19.2c0-3.9,3.1-7,7-7h19.8c3.9,0,7,3.1,7,7v19.2h13.6c3.9,0,7,3.1,7,7v14.7c0,3.9-3.1,7-7,7h-13.6v59
		c0,4.6,1.1,5.7,1.1,5.8c0.3,0.3,1.1,1.1,3.5,1.1c0.7,0,1.5-0.1,2.4-0.3c1-0.2,1.8-0.4,2.5-0.7c1.9-0.7,4.1-0.6,5.9,0.4
		c1.8,1,3.1,2.8,3.5,4.8l2.6,13.6c0.5,2.5-0.5,5.1-2.4,6.7c-2.3,1.9-5.2,3.3-9.1,4.3C1395.2-1086.3,1391.7-1085.8,1388.2-1085.8z"/>
</g>
<g>
	<path class="st4" d="M1611.4-1085.8c-17.9,0-32-6.1-41.7-18c-9.4-11.5-14.1-26.1-14.1-43.3v-4.2c0-17,4.8-31.5,14.2-43.1
		c9.8-12,23.8-18.1,41.6-18.1c14.5,0,26.6,4.4,35.9,13.1c9.6,8.9,14.2,20,13.9,32.9c0,0.7-0.1,1.4-0.4,2l-0.2,0.6
		c-1,2.9-3.6,4.8-6.6,4.8h-17.9c-3.9,0-7-3.1-7-7c0-4.8-1.6-8.6-5-11.9c-3.4-3.3-7.5-4.9-12.8-4.9c-10.4,0-14.2,4.4-16.2,7.8
		c-3.8,6.3-5.7,14.3-5.7,23.8v4.2c0,9.8,1.9,17.9,5.6,24.1c2,3.3,5.8,7.7,16.3,7.7c4.9,0,9.2-1.5,12.9-4.5c3.3-2.7,4.9-5.7,4.9-9.5
		c0-3.9,3.1-7,7-7h17.8c3,0,5.7,1.9,6.6,4.8l0.2,0.6c0.2,0.6,0.3,1.3,0.4,2c0.4,11.6-4.6,21.9-15,30.6
		C1636.3-1090,1624.6-1085.8,1611.4-1085.8z"/>
</g>
<g>
	<path class="st4" d="M1767.6-1087.9C1767.6-1087.9,1767.6-1087.9,1767.6-1087.9h-23.3c-2.3,0-4.4-1.1-5.7-3l-33.1-47.3h-2.2v43.3
		c0,3.9-3.1,7-7,7h-19.8c-3.9,0-7-3.1-7-7v-156.6c0-3.9,3.1-7,7-7h19.8c3.9,0,7,3.1,7,7v83.8h2l27.6-39.8c1.3-1.9,3.5-3,5.7-3h23.7
		c2.7,0,5.1,1.5,6.3,3.9c1.2,2.4,0.9,5.2-0.7,7.3l-34.1,45.2l39.2,54.8c1,1.2,1.6,2.8,1.6,4.5
		C1774.6-1091,1771.5-1087.9,1767.6-1087.9z"/>
</g>
<circle class="st4" cx="1483.7" cy="-1148.9" r="62.1"/>
<circle class="st0" cx="1483.7" cy="-1148.9" r="42.9"/>
<circle class="st4" cx="1483.7" cy="-1148.9" r="22.2"/>
<line class="st7" x1="1417.8" y1="-1213.5" x2="1331.2" y2="-1213.5"/>
<line class="st8" x1="1100.5" y1="-1156.5" x2="1099.8" y2="-1156.5"/>
<path class="st4" d="M1632.1-414.8c5,0,8.7-1.4,11.1-4.1c2.4-2.7,3.6-6.7,3.6-11.9h33.9l0.2,0.7c0.3,12.9-4.2,23.5-13.4,31.6
	c-9.2,8.1-21,12.2-35.4,12.2c-18,0-31.8-5.6-41.6-16.8c-9.8-11.2-14.6-25.7-14.6-43.5v-2.5c0-17.8,4.9-32.2,14.6-43.5
	c9.7-11.2,23.5-16.8,41.3-16.8c15.1,0,27.1,4.2,36.1,12.6c9,8.4,13.3,19.8,13,34.3l-0.2,0.7h-33.9c0-5.6-1.2-10.2-3.7-13.8
	c-2.5-3.5-6.2-5.3-11.3-5.3c-7,0-11.9,2.9-14.7,8.7c-2.8,5.8-4.2,13.5-4.2,23.1v2.5c0,9.9,1.4,17.7,4.2,23.3
	C1619.8-417.7,1624.9-414.8,1632.1-414.8z M1739.4-435.8h-6.2v47.1h-37.1v-171h37.1v95.9h4.9l25.3-43.5h42.4l-36.8,53.6l42.6,65
	h-42.2L1739.4-435.8z"/>
<path class="st4" d="M1306.2-422c0-2.9-1.7-5.5-5-7.8c-3.3-2.3-9.4-4.4-18.1-6.2c-13.8-2.7-24.2-6.9-31.2-12.6
	c-7-5.7-10.5-13.5-10.5-23.3c0-10.4,4.4-19.3,13.2-26.6c8.8-7.3,20.6-10.9,35.6-10.9c15.8,0,28.4,3.5,37.7,10.6
	c9.4,7.1,13.8,16.2,13.4,27.4l-0.2,0.7h-36c0-4.7-1.2-8.2-3.6-10.6c-2.4-2.4-6.2-3.6-11.5-3.6c-3.9,0-7.1,1.1-9.8,3.2
	c-2.6,2.1-3.9,4.8-3.9,8.1c0,3.1,1.5,5.8,4.5,8c3,2.2,9.2,4.2,18.4,5.9c14.5,2.8,25.2,7.1,32.2,12.8c7,5.7,10.5,13.7,10.5,24.1
	c0,10.7-4.7,19.5-14.2,26.4c-9.5,6.9-22,10.4-37.5,10.4c-16.2,0-28.9-4.1-38.3-12.3c-9.4-8.2-13.9-17.3-13.4-27.4l0.2-0.7h33.5
	c0.1,5.6,1.8,9.7,5.1,12.2c3.3,2.5,7.9,3.7,13.9,3.7c5,0,8.7-1,11.3-2.9C1304.9-415.6,1306.2-418.4,1306.2-422z M1403.1-536.7v29.5
	h20.1v25.7h-20.1v54.4c0,4.2,0.9,7.3,2.6,9.2c1.7,1.9,4,2.8,7,2.8c2.3,0,4.2-0.1,5.5-0.2c1.4-0.1,3.1-0.4,5.2-0.9l2.6,27.4
	c-4.1,0.9-7.8,1.6-11.1,2c-3.3,0.4-7.2,0.6-11.6,0.6c-12.2,0-21.4-3.3-27.7-9.8c-6.3-6.5-9.4-16.8-9.4-30.9v-54.6h-16.7v-25.7h16.7
	v-29.5H1403.1z"/>
<circle class="st0" cx="1505.9" cy="-454.9" r="32.4"/>
<rect x="1523.8" y="-518" class="st9" width="23" height="27"/>
<rect x="1451.8" y="-498" class="st10" width="101" height="101"/>
<g>
	<circle class="st0" cx="1502.3" cy="-447.5" r="40.6"/>
	<circle class="st4" cx="1502.3" cy="-447.5" r="29.5"/>
	<circle class="st0" cx="1502.3" cy="-447.5" r="26.4"/>
</g>
<rect x="1133" y="-283.4" class="st0" width="1073" height="317"/>
<g>
	<path class="st4" d="M1825.9-203.8v-20.8h71.4v20.8l-18.5,3.6v123.7l18.5,3.5v20.7h-71.4v-20.7l18.5-3.5v-123.7L1825.9-203.8z"/>
	<path class="st4" d="M2062.1-224.7v45.9h-26.5l-1.4-19.3h-31.7v121.4l18.5,3.5v20.7h-71.5v-20.7l18.5-3.5V-198h-31.6l-1.4,19.3
		h-26.4v-45.9H2062.1z"/>
</g>
<path class="st4" d="M1632.1-79.8c5,0,8.7-1.4,11.1-4.1c2.4-2.7,3.6-6.7,3.6-11.9h33.9l0.2,0.7c0.3,12.9-4.2,23.5-13.4,31.6
	c-9.2,8.1-21,12.2-35.4,12.2c-18,0-31.8-5.6-41.6-16.8c-9.8-11.2-14.6-25.7-14.6-43.5v-2.5c0-17.8,4.9-32.2,14.6-43.5
	c9.7-11.2,23.5-16.8,41.3-16.8c15.1,0,27.1,4.2,36.1,12.6c9,8.4,13.3,19.8,13,34.3l-0.2,0.7h-33.9c0-5.6-1.2-10.2-3.7-13.8
	c-2.5-3.5-6.2-5.3-11.3-5.3c-7,0-11.9,2.9-14.7,8.7c-2.8,5.8-4.2,13.5-4.2,23.1v2.5c0,9.9,1.4,17.7,4.2,23.3
	C1619.8-82.7,1624.9-79.8,1632.1-79.8z M1739.4-100.8h-6.2v47.1h-37.1v-171h37.1v95.9h4.9l25.3-43.5h42.4l-36.8,53.6l42.6,65h-42.2
	L1739.4-100.8z"/>
<path class="st4" d="M1306.2-87c0-2.9-1.7-5.5-5-7.8c-3.3-2.3-9.4-4.4-18.1-6.2c-13.8-2.7-24.2-6.9-31.2-12.6
	c-7-5.7-10.5-13.5-10.5-23.3c0-10.4,4.4-19.3,13.2-26.6c8.8-7.3,20.6-10.9,35.6-10.9c15.8,0,28.4,3.5,37.7,10.6
	c9.4,7.1,13.8,16.2,13.4,27.4l-0.2,0.7h-36c0-4.7-1.2-8.2-3.6-10.6c-2.4-2.4-6.2-3.6-11.5-3.6c-3.9,0-7.1,1.1-9.8,3.2
	c-2.6,2.1-3.9,4.8-3.9,8.1c0,3.1,1.5,5.8,4.5,8c3,2.2,9.2,4.2,18.4,5.9c14.5,2.8,25.2,7.1,32.2,12.8c7,5.7,10.5,13.7,10.5,24.1
	c0,10.7-4.7,19.5-14.2,26.4c-9.5,6.9-22,10.4-37.5,10.4c-16.2,0-28.9-4.1-38.3-12.3c-9.4-8.2-13.9-17.3-13.4-27.4l0.2-0.7h33.5
	c0.1,5.6,1.8,9.7,5.1,12.2c3.3,2.5,7.9,3.7,13.9,3.7c5,0,8.7-1,11.3-2.9C1304.9-80.6,1306.2-83.4,1306.2-87z M1403.1-201.7v29.5
	h20.1v25.7h-20.1v54.4c0,4.2,0.9,7.3,2.6,9.2c1.7,1.9,4,2.8,7,2.8c2.3,0,4.2-0.1,5.5-0.2c1.4-0.1,3.1-0.4,5.2-0.9L1426-54
	c-4.1,0.9-7.8,1.6-11.1,2c-3.3,0.4-7.2,0.6-11.6,0.6c-12.2,0-21.4-3.3-27.7-9.8c-6.3-6.5-9.4-16.8-9.4-30.9v-54.6h-16.7v-25.7h16.7
	v-29.5H1403.1z"/>
<circle class="st0" cx="1505.9" cy="-119.9" r="32.4"/>
<rect x="1523.8" y="-183" class="st9" width="23" height="27"/>
<rect x="1451.8" y="-163" class="st10" width="101" height="101"/>
<circle class="st0" cx="1502.3" cy="-112.5" r="40"/>
<circle class="st4" cx="1502.3" cy="-112.5" r="23.3"/>
<g>
	<g>
		<path class="st11" d="M610.4-203.8v-20.8h71.4v20.8l-18.5,3.6v123.7l18.5,3.5v20.7h-71.4v-20.7l18.5-3.5v-123.7L610.4-203.8z"/>
		<path class="st11" d="M846.6-224.7v45.9h-26.5l-1.4-19.3h-31.7v121.4l18.5,3.5v20.7h-71.5v-20.7l18.5-3.5V-198h-31.6l-1.4,19.3
			H693v-45.9H846.6z"/>
	</g>
	<path class="st11" d="M416.6-79.8c5,0,8.7-1.4,11.1-4.1c2.4-2.7,3.6-6.7,3.6-11.9h33.9l0.2,0.7c0.3,12.9-4.2,23.5-13.4,31.6
		c-9.2,8.1-21,12.2-35.4,12.2c-18,0-31.8-5.6-41.6-16.8c-9.8-11.2-14.6-25.7-14.6-43.5v-2.5c0-17.8,4.9-32.2,14.6-43.5
		c9.7-11.2,23.5-16.8,41.3-16.8c15.1,0,27.1,4.2,36.1,12.6c9,8.4,13.3,19.8,13,34.3l-0.2,0.7h-33.9c0-5.6-1.2-10.2-3.7-13.8
		c-2.5-3.5-6.2-5.3-11.3-5.3c-7,0-11.9,2.9-14.7,8.7c-2.8,5.8-4.2,13.5-4.2,23.1v2.5c0,9.9,1.4,17.7,4.2,23.3
		C404.3-82.7,409.3-79.8,416.6-79.8z M523.9-100.8h-6.2v47.1h-37.1v-171h37.1v95.9h4.9l25.3-43.5h42.4l-36.8,53.6l42.6,65h-42.2
		L523.9-100.8z"/>
	<path class="st11" d="M90.6-87c0-2.9-1.7-5.5-5-7.8c-3.3-2.3-9.4-4.4-18.1-6.2c-13.8-2.7-24.2-6.9-31.2-12.6
		c-7-5.7-10.5-13.5-10.5-23.3c0-10.4,4.4-19.3,13.2-26.6c8.8-7.3,20.6-10.9,35.6-10.9c15.8,0,28.4,3.5,37.7,10.6
		c9.4,7.1,13.8,16.2,13.4,27.4l-0.2,0.7h-36c0-4.7-1.2-8.2-3.6-10.6c-2.4-2.4-6.2-3.6-11.5-3.6c-3.9,0-7.1,1.1-9.8,3.2
		c-2.6,2.1-3.9,4.8-3.9,8.1c0,3.1,1.5,5.8,4.5,8c3,2.2,9.2,4.2,18.4,5.9c14.5,2.8,25.2,7.1,32.2,12.8c7,5.7,10.5,13.7,10.5,24.1
		c0,10.7-4.7,19.5-14.2,26.4c-9.5,6.9-22,10.4-37.5,10.4c-16.2,0-28.9-4.1-38.3-12.3C26.8-71.8,22.4-80.9,22.8-91l0.2-0.7h33.5
		c0.1,5.6,1.8,9.7,5.1,12.2c3.3,2.5,7.9,3.7,13.9,3.7c5,0,8.7-1,11.3-2.9C89.4-80.6,90.6-83.4,90.6-87z M187.6-201.7v29.5h20.1v25.7
		h-20.1v54.4c0,4.2,0.9,7.3,2.6,9.2c1.7,1.9,4,2.8,7,2.8c2.3,0,4.2-0.1,5.5-0.2c1.4-0.1,3.1-0.4,5.2-0.9l2.6,27.4
		c-4.1,0.9-7.8,1.6-11.1,2c-3.3,0.4-7.2,0.6-11.6,0.6c-12.2,0-21.4-3.3-27.7-9.8c-6.3-6.5-9.4-16.8-9.4-30.9v-54.6h-16.7v-25.7h16.7
		v-29.5H187.6z"/>
	<g>
		<path class="st11" d="M337.3-173.5h-3v-9.5c0-1.7-1.3-3-3-3h-23c-1.7,0-3,1.3-3,3v9.5h-69c-5.8,0-10.5,4.7-10.5,10.5v101
			c0,5.8,4.7,10.5,10.5,10.5h101c5.8,0,10.5-4.7,10.5-10.5v-101C347.8-168.8,343.1-173.5,337.3-173.5z M286.8-72.6
			c-22.1,0-40-17.9-40-40c0-22.1,17.9-40,40-40s40,17.9,40,40C326.8-90.4,308.9-72.6,286.8-72.6z"/>
		<circle class="st11" cx="286.8" cy="-112.5" r="23.3"/>
	</g>
</g>
<g>
	<g>
		<path class="st4" d="M610.4,43.7V22.8h71.4v20.8l-18.5,3.6v123.7l18.5,3.5v20.7h-71.4v-20.7l18.5-3.5V47.2L610.4,43.7z"/>
		<path class="st4" d="M846.6,22.8v45.9h-26.5l-1.4-19.3h-31.7v121.4l18.5,3.5v20.7h-71.5v-20.7l18.5-3.5V49.5h-31.6l-1.4,19.3H693
			V22.8H846.6z"/>
	</g>
	<path class="st4" d="M416.6,167.6c5,0,8.7-1.4,11.1-4.1c2.4-2.7,3.6-6.7,3.6-11.9h33.9l0.2,0.7c0.3,12.9-4.2,23.5-13.4,31.6
		c-9.2,8.1-21,12.2-35.4,12.2c-18,0-31.8-5.6-41.6-16.8c-9.8-11.2-14.6-25.7-14.6-43.5v-2.5c0-17.8,4.9-32.2,14.6-43.5
		c9.7-11.2,23.5-16.8,41.3-16.8c15.1,0,27.1,4.2,36.1,12.6c9,8.4,13.3,19.8,13,34.3l-0.2,0.7h-33.9c0-5.6-1.2-10.2-3.7-13.8
		c-2.5-3.5-6.2-5.3-11.3-5.3c-7,0-11.9,2.9-14.7,8.7c-2.8,5.8-4.2,13.5-4.2,23.1v2.5c0,9.9,1.4,17.7,4.2,23.3
		C404.3,164.8,409.3,167.6,416.6,167.6z M523.9,146.7h-6.2v47.1h-37.1v-171h37.1v95.9h4.9l25.3-43.5h42.4l-36.8,53.6l42.6,65h-42.2
		L523.9,146.7z"/>
	<path class="st4" d="M90.6,160.5c0-2.9-1.7-5.5-5-7.8c-3.3-2.3-9.4-4.4-18.1-6.2c-13.8-2.7-24.2-6.9-31.2-12.6
		c-7-5.7-10.5-13.5-10.5-23.3c0-10.4,4.4-19.3,13.2-26.6C47.7,76.7,59.6,73,74.5,73c15.8,0,28.4,3.5,37.7,10.6
		c9.4,7.1,13.8,16.2,13.4,27.4l-0.2,0.7h-36c0-4.7-1.2-8.2-3.6-10.6c-2.4-2.4-6.2-3.6-11.5-3.6c-3.9,0-7.1,1.1-9.8,3.2
		c-2.6,2.1-3.9,4.8-3.9,8.1c0,3.1,1.5,5.8,4.5,8c3,2.2,9.2,4.2,18.4,5.9c14.5,2.8,25.2,7.1,32.2,12.8c7,5.7,10.5,13.7,10.5,24.1
		c0,10.7-4.7,19.5-14.2,26.4c-9.5,6.9-22,10.4-37.5,10.4c-16.2,0-28.9-4.1-38.3-12.3c-9.4-8.2-13.9-17.3-13.4-27.4l0.2-0.7h33.5
		c0.1,5.6,1.8,9.7,5.1,12.2c3.3,2.5,7.9,3.7,13.9,3.7c5,0,8.7-1,11.3-2.9C89.4,166.9,90.6,164.1,90.6,160.5z M187.6,45.7v29.5h20.1
		v25.7h-20.1v54.4c0,4.2,0.9,7.3,2.6,9.2c1.7,1.9,4,2.8,7,2.8c2.3,0,4.2-0.1,5.5-0.2c1.4-0.1,3.1-0.4,5.2-0.9l2.6,27.4
		c-4.1,0.9-7.8,1.6-11.1,2c-3.3,0.4-7.2,0.6-11.6,0.6c-12.2,0-21.4-3.3-27.7-9.8c-6.3-6.5-9.4-16.8-9.4-30.9v-54.6h-16.7V75.2h16.7
		V45.7H187.6z"/>
	<g>
		<path class="st4" d="M337.3,74h-3v-9.5c0-1.7-1.3-3-3-3h-23c-1.7,0-3,1.3-3,3V74h-69c-5.8,0-10.5,4.7-10.5,10.5v101
			c0,5.8,4.7,10.5,10.5,10.5h101c5.8,0,10.5-4.7,10.5-10.5v-101C347.8,78.7,343.1,74,337.3,74z M286.8,174.9c-22.1,0-40-17.9-40-40
			c0-22.1,17.9-40,40-40s40,17.9,40,40C326.8,157,308.9,174.9,286.8,174.9z"/>
		<circle class="st4" cx="286.8" cy="135" r="23.3"/>
	</g>
</g>
</svg>
